# xmcd
#
# Track frame offsets:
#	150
#	23212
#	42375
#	63687
#	83250
#	104250
#	125262
#	139215
#	157447
#	174200
#	193150
#
# Disc length: 2817 seconds
#
# Revision: 0
# Processed by: cddbd v1.5.2PL0 Copyright (c) Steve Scherf et al.
# Submitted via: EasyCDDAExtractor 11.9.9.666
#
DISCID=950aff0b
DTITLE=帤眭眙扲模 - 帤眭梓枙
DYEAR=1900
DGENRE=
TTITLE0=永遠不回頭
TTITLE1=如果你冷
TTITLE2=我至少可以給你什麼
TTITLE3=迷你約會
TTITLE4=永遠不回頭
TTITLE5=我喜歡瘋狂
TTITLE6=說我心中的愛
TTITLE7=沒有
TTITLE8=看見
TTITLE9=永遠的藍天
TTITLE10=宇宙征服者
EXTD=
EXTT0=
EXTT1=
EXTT2=
EXTT3=
EXTT4=
EXTT5=
EXTT6=
EXTT7=
EXTT8=
EXTT9=
EXTT10=
PLAYORDER=
